#!OML:ASF X:\für Bonn\!DataBase\2005_08_10_Bjorn_Final\c3d\bjorn.ASF
:FULLY-SPECIFIED
:DEGREES
63
root 1.80923 19.3379 3.52387 -190.424 2.36223 -211.011
lowerback 30.3491 0.817851 0.496713
upperback 17.4183 7.52922 -5.35099
thorax 3.99688 6.78435 -7.49413
lowerneck -6.19639 11.8113 7.0648
upperneck 6.86003 17.3882 -24.1707
head 6.00607 7.34658 -7.32556
rclavicle 1.59028e-014 -1.43125e-013
rhumerus -17.0297 -14.6468 -71.7722
rradius 69.0872
rwrist 1.00229
rhand -11.4792 16.6502
rfingers 7.12502
rthumb 14.5588 -12.8189
lclavicle 1.59028e-014 -1.43125e-013
lhumerus -28.421 -8.06383 61.0568
lradius 108.266
lwrist -30.0445
lhand -57.2882 -31.388
lfingers 7.12502
lthumb -29.5666 -3.7231
rfemur -7.95641 -4.87413 -14.4136
rtibia 33.0315
rfoot -9.60054 18.4797
rtoes -9.69947
lfemur -64.0577 27.1192 22.2377
ltibia 115.425
lfoot -18.223 -6.0143
ltoes -4.61959
64
root 1.81655 19.3549 3.48225 -190.28 2.29664 -211.614
lowerback 29.455 0.562612 0.583299
upperback 17.4119 7.11878 -5.57972
thorax 4.31747 6.56393 -7.6169
lowerneck -5.94943 11.8372 6.61943
upperneck 7.43056 17.5134 -23.7759
head 6.07188 7.38761 -7.12542
rclavicle -9.38264e-014 6.36111e-015
rhumerus -18.34 -14.9531 -71.8264
rradius 70.3128
rwrist 0.888502
rhand -11.9255 17.0333
rfingers 7.12502
rthumb 14.1288 -12.4663
lclavicle -9.38264e-014 6.36111e-015
lhumerus -27.4542 -7.37254 60.3533
lradius 108.227
lwrist -30.3476
lhand -57.1204 -32.2793
lfingers 7.12502
lthumb -29.4064 -4.58621
rfemur -7.71262 -4.9142 -15.0309
rtibia 32.4929
rfoot -9.56221 18.3226
rtoes -9.10181
lfemur -61.4128 24.1612 21.5632
ltibia 110.24
lfoot -17.3108 -2.78032
ltoes -6.3614
65
root 1.82384 19.3674 3.43278 -190.244 2.21022 -212.203
lowerback 28.5225 0.28766 0.716698
upperback 17.4587 6.72561 -5.821
thorax 4.72545 6.37235 -7.78111
lowerneck -5.68169 11.8476 6.24597
upperneck 7.99879 17.6082 -23.4149
head 6.13906 7.41471 -6.95445
rclavicle 4.29375e-014 -1.145e-013
rhumerus -19.6805 -15.4772 -71.7978
rradius 71.2523
rwrist 0.831796
rhand -12.3142 17.6112
rfingers 7.12502
rthumb 13.7542 -11.9142
lclavicle 4.29375e-014 -1.145e-013
lhumerus -26.3645 -6.66036 59.6927
lradius 108.021
lwrist -30.6565
lhand -56.8925 -33.3393
lfingers 7.12502
lthumb -29.1888 -5.60821
rfemur -7.29751 -4.80552 -15.6437
rtibia 31.9104
rfoot -9.57803 18.0825
rtoes -8.67653
lfemur -58.5319 21.4782 20.8039
ltibia 104.614
lfoot -15.8068 -0.405309
ltoes -8.49221
66
root 1.8271 19.3698 3.37753 -190.261 2.07539 -212.72
lowerback 27.4835 -0.049253 0.939679
upperback 17.3391 6.2341 -5.85318
thorax 5.44885 6.18373 -8.1889
lowerneck -5.36013 11.8723 5.83533
upperneck 8.54034 17.7085 -23.0091
head 6.18127 7.45058 -6.76606
rclavicle -3.33958e-014 -9.85972e-014
rhumerus -20.9449 -16.1986 -71.7039
rradius 71.8273
rwrist 0.823529
rhand -12.7826 18.2526
rfingers 7.12502
rthumb 13.3028 -11.3028
lclavicle -3.33958e-014 -9.85972e-014
lhumerus -25.2643 -5.82823 59.0395
lradius 107.658
lwrist -30.9248
lhand -56.6125 -34.527
lfingers 7.12502
lthumb -28.9214 -6.74971
rfemur -6.79207 -4.64149 -16.2034
rtibia 31.361
rfoot -9.65774 17.7947
rtoes -8.42015
lfemur -55.2499 18.9531 20.1425
ltibia 98.3081
lfoot -13.6272 1.08749
ltoes -9.6314
67
root 1.82995 19.3722 3.31702 -190.294 1.9136 -213.174
lowerback 26.4801 -0.452044 1.19215
upperback 17.3811 5.70488 -6.12378
thorax 5.92725 5.94573 -8.42821
lowerneck -5.01652 11.9414 5.37884
upperneck 9.01365 17.8546 -22.6182
head 6.20336 7.51008 -6.57184
rclavicle -8.26944e-014 -4.13472e-014
rhumerus -22.1195 -16.9524 -71.555
rradius 72.0795
rwrist 0.685651
rhand -13.5306 18.8499
rfingers 7.12502
rthumb 12.5816 -10.7512
lclavicle -8.26944e-014 -4.13472e-014
lhumerus -24.2052 -4.82307 58.3663
lradius 107.142
lwrist -31.2354
lhand -56.4455 -35.7253
lfingers 7.12502
lthumb -28.7619 -7.92089
rfemur -6.24586 -4.45358 -16.7026
rtibia 30.859
rfoot -9.77284 17.499
rtoes -8.18625
lfemur -51.661 16.6462 19.5602
ltibia 91.3667
lfoot -10.8726 1.92111
ltoes -11.4144
68
root 1.83107 19.3708 3.24993 -190.286 1.75523 -213.58
lowerback 25.3571 -0.857915 1.44923
upperback 17.4063 5.13747 -6.35548
thorax 6.42817 5.67368 -8.62493
lowerneck -4.64449 12.0378 4.83847
upperneck 9.53975 18.0426 -22.2447
head 6.23728 7.5778 -6.36941
rclavicle 6.67916e-014 -2.54444e-014
rhumerus -23.2704 -17.5632 -71.241
rradius 72.0418
rwrist 0.11806
rhand -14.3769 19.3117
rfingers 7.12502
rthumb 11.7657 -10.3378
lclavicle 6.67916e-014 -2.54444e-014
lhumerus -23.2114 -3.68026 57.7508
lradius 106.407
lwrist -31.7556
lhand -56.5102 -36.5895
lfingers 7.12502
lthumb -28.8237 -8.79553
rfemur -5.77419 -4.28296 -17.1633
rtibia 30.4965
rfoot -9.96384 17.2632
rtoes -8.2562
lfemur -47.9422 14.5837 19.0559
ltibia 83.9185
lfoot -7.77015 2.39901
ltoes -13.3504
69
root 1.83153 19.3714 3.17615 -190.2 1.62202 -213.859
lowerback 24.1067 -1.23526 1.8148
upperback 17.3921 4.57155 -6.51516
thorax 6.94148 5.38694 -8.81367
lowerneck -4.32369 12.1307 4.1881
upperneck 10.2119 18.2372 -21.8015
head 6.30917 7.62785 -6.12683
rclavicle -6.83819e-014 9.54166e-014
rhumerus -24.4768 -18.1592 -70.6934
rradius 71.6983
rwrist -0.510497
rhand -15.0869 19.6609
rfingers 7.12502
rthumb 11.0809 -10.0266
lclavicle -6.83819e-014 9.54166e-014
lhumerus -22.3035 -2.50785 57.1964
lradius 105.505
lwrist -32.3588
lhand -56.7102 -37.1976
lfingers 7.12502
lthumb -29.0147 -9.43639
rfemur -5.40497 -4.22336 -17.5089
rtibia 30.2494
rfoot -10.0904 17.1627
rtoes -8.11624
lfemur -44.2493 12.9533 18.55
ltibia 76.1116
lfoot -4.09728 3.33479
ltoes -15.9091
70
root 1.82153 19.3623 3.09431 -190.023 1.50789 -214.016
lowerback 22.6796 -1.58629 2.24026
upperback 17.357 3.99835 -6.59542
thorax 7.51242 5.08062 -8.95371
lowerneck -4.00646 12.2258 3.53409
upperneck 10.9459 18.4388 -21.4305
head 6.40992 7.66325 -5.90922
rclavicle -6.52014e-014 -2.00375e-013
rhumerus -25.7347 -18.8255 -69.8718
rradius 71.0637
rwrist -0.688811
rhand -15.6607 19.9812
rfingers 7.12502
rthumb 10.5275 -9.73518
lclavicle -6.52014e-014 -2.00375e-013
lhumerus -21.4786 -1.21214 56.7067
lradius 104.417
lwrist -33.0807
lhand -56.9547 -37.6515
lfingers 7.12502
lthumb -29.2482 -9.93067
rfemur -5.19324 -4.34758 -17.7886
rtibia 30.192
rfoot -10.2486 17.2227
rtoes -8.28028
lfemur -40.3433 11.6579 18.1473
ltibia 67.8138
lfoot 0.199304 4.80479
ltoes -18.0088
71
root 1.80905 19.3577 3.00477 -189.735 1.4398 -214.053
lowerback 21.0581 -1.8867 2.70288
upperback 17.2883 3.42918 -6.56708
thorax 8.13896 4.75136 -9.00475
lowerneck -3.68441 12.3289 2.82249
upperneck 11.7099 18.6475 -21.0979
head 6.51953 7.68593 -5.69788
rclavicle -5.56597e-014 2.8625e-014
rhumerus -27.1042 -19.4374 -68.7556
rradius 70.445
rwrist -0.715489
rhand -16.1755 19.8627
rfingers 7.12502
rthumb 10.0308 -9.87828
lclavicle -5.56597e-014 2.8625e-014
lhumerus -20.802 0.120817 56.3556
lradius 103.198
lwrist -33.723
lhand -57.1059 -37.9805
lfingers 7.12502
lthumb -29.3926 -10.285
rfemur -5.17639 -4.65734 -17.9735
rtibia 30.3103
rfoot -10.3096 17.5071
rtoes -8.15317
lfemur -36.2986 10.0614 17.9551
ltibia 59.1841
lfoot 4.72163 7.07909
ltoes -16.0207
72
root 1.78894 19.3485 2.90691 -189.38 1.42856 -213.956
lowerback 19.3299 -2.13665 3.27
upperback 17.174 2.88124 -6.46867
thorax 8.78391 4.42486 -9.06393
lowerneck -3.39116 12.4428 2.21496
upperneck 12.5379 18.8748 -20.8202
head 6.67333 7.70463 -5.51821
rclavicle -6.99722e-014 -1.90833e-014
rhumerus -28.5712 -20.1226 -67.3641
rradius 69.7705
rwrist -0.861264
rhand -16.4114 19.4328
rfingers 7.12502
rthumb 9.80324 -10.319
lclavicle -6.99722e-014 -1.90833e-014
lhumerus -20.2048 1.42694 56.0204
lradius 101.743
lwrist -34.0157
lhand -57.1352 -39.2612
lfingers 7.12502
lthumb -29.4206 -11.5706
rfemur -5.313 -5.09864 -18.0565
rtibia 30.5902
rfoot -10.2994 17.9408
rtoes -7.76011
lfemur -32.2747 8.4867 18.023
ltibia 50.435
lfoot 8.32984 10.2605
ltoes -12.9406
73
root 1.76161 19.3338 2.80704 -188.994 1.45183 -213.784
lowerback 17.6314 -2.32833 3.92564
upperback 16.9874 2.36858 -6.33794
thorax 9.35294 4.11216 -9.17546
lowerneck -3.14991 12.5458 1.73758
upperneck 13.4773 19.0912 -20.5088
head 6.87999 7.70973 -5.34676
rclavicle 1.59028e-014 -3.49861e-014
rhumerus -30.1996 -20.9858 -65.6838
rradius 68.9621
rwrist -1.39341
rhand -16.2626 19.0507
rfingers 7.12502
rthumb 9.94686 -10.6943
lclavicle 1.59028e-014 -3.49861e-014
lhumerus -19.6656 2.75495 55.6382
lradius 100.193
lwrist -34.5022
lhand -57.0247 -40.0148
lfingers 7.12502
lthumb -29.3151 -12.3056
rfemur -5.53756 -5.63744 -18.1183
rtibia 30.9519
rfoot -10.1202 18.5721
rtoes -7.05786
lfemur -28.3809 6.69947 18.2254
ltibia 41.8363
lfoot 10.7116 14.4361
ltoes -8.07172
74
root 1.73579 19.3255 2.70882 -188.591 1.48898 -213.537
lowerback 16.0315 -2.4426 4.64853
upperback 16.7098 1.90852 -6.13893
thorax 9.78454 3.81136 -9.28534
lowerneck -2.84643 12.6179 1.39987
upperneck 14.4507 19.25 -20.2091
head 7.09505 7.69026 -5.21225
rclavicle 4.77083e-015 -9.54166e-014
rhumerus -31.9844 -21.9883 -63.6354
rradius 67.9324
rwrist -2.17678
rhand -15.7521 18.4351
rfingers 7.12502
rthumb 10.4393 -11.2857
lclavicle 4.77083e-015 -9.54166e-014
lhumerus -19.2152 3.97839 55.2706
lradius 98.5656
lwrist -35.1894
lhand -56.812 -40.0577
lfingers 7.12502
lthumb -29.1119 -12.3133
rfemur -5.84519 -6.25519 -18.1134
rtibia 31.4344
rfoot -9.88317 19.3153
rtoes -6.12913
lfemur -24.7746 4.65156 18.4776
ltibia 33.6762
lfoot 12.1313 18.1837
ltoes -5.61178
75
root 1.71135 19.317 2.61467 -188.151 1.45049 -213.222
lowerback 14.4886 -2.527 5.43007
upperback 16.358 1.45788 -5.928
thorax 10.1147 3.51358 -9.44162
lowerneck -2.44694 12.6635 1.31606
upperneck 15.3644 19.3442 -19.9508
head 7.29554 7.66383 -5.14268
rclavicle -5.725e-014 -2.22639e-014
rhumerus -33.8341 -23.1606 -61.3479
rradius 66.6292
rwrist -3.03234
rhand -14.8869 17.4984
rfingers 7.12502
rthumb 11.2739 -12.1787
lclavicle -5.725e-014 -2.22639e-014
lhumerus -18.7743 5.02181 54.8748
lradius 96.8509
lwrist -35.8231
lhand -56.5294 -39.9965
lfingers 7.12502
lthumb -28.8421 -12.2057
rfemur -6.19528 -6.94091 -18.0553
rtibia 32.0349
rfoot -9.56523 20.1203
rtoes -4.92735
lfemur -21.6594 2.04176 18.8192
ltibia 26.2702
lfoot 12.2379 21.4294
ltoes -4.47106
76
root 1.67829 19.2937 2.52767 -187.701 1.29361 -212.84
lowerback 13.0856 -2.64001 6.2487
upperback 15.9331 0.948972 -5.70413
thorax 10.278 3.18126 -9.62501
lowerneck -1.9413 12.703 1.38345
upperneck 16.1503 19.3983 -19.761
head 7.45362 7.64085 -5.12951
rclavicle 1.59028e-014 0
rhumerus -35.6947 -24.3491 -58.8021
rradius 65.0059
rwrist -3.95942
rhand -14.1396 16.5969
rfingers 7.12502
rthumb 11.9945 -13.0394
lclavicle 1.59028e-014 0
lhumerus -18.4378 5.90579 54.4053
lradius 95.0858
lwrist -36.3594
lhand -56.231 -39.9172
lfingers 7.12502
lthumb -28.557 -12.0781
rfemur -6.55076 -7.69099 -17.9783
rtibia 32.7187
rfoot -9.23165 20.9345
rtoes -3.90904
lfemur -19.2481 -2.06058 19.4685
ltibia 20.137
lfoot 9.67772 25.0213
ltoes -2.59598
77
root 1.641 19.2627 2.45378 -187.248 1.01211 -212.447
lowerback 11.8699 -2.78014 7.07521
upperback 15.439 0.395395 -5.46006
thorax 10.2489 2.81614 -9.80704
lowerneck -1.39589 12.733 1.44029
upperneck 16.883 19.4179 -19.5596
head 7.58182 7.60729 -5.11845
rclavicle -5.56597e-014 -9.54166e-014
rhumerus -37.6632 -25.5325 -55.9098
rradius 63.1843
rwrist -4.97626
rhand -13.8115 15.9456
rfingers 7.12502
rthumb 12.3109 -13.672
lclavicle -5.56597e-014 -9.54166e-014
lhumerus -18.188 6.59304 53.8706
lradius 93.3006
lwrist -36.8668
lhand -56.0671 -39.8937
lfingers 7.12502
lthumb -28.4003 -12.0284
rfemur -6.90538 -8.44197 -17.9102
rtibia 33.4529
rfoot -8.89561 21.6847
rtoes -2.99848
lfemur -17.8809 -9.53182 20.7189
ltibia 15.9405
lfoot 2.75105 30.3637
ltoes -0.107336
